<?xml version="1.0" encoding="UTF-8"?>
<!-- Created with Inkscape (http://www.inkscape.org/) -->
<svg width="1016" height="232.58" version="1.1" viewBox="0 0 1016 232.58" xmlns="http://www.w3.org/2000/svg">
 <g transform="translate(-4.0181 -139.71)">
  <g>
   <g fill="#005ba3" stroke-width="7.8151">
    <path d="m164.38 305.7c-18.444 18.131-35.324 21.57-47.829 21.57-25.634 0-40.639-13.129-45.015-17.506-9.3782-9.0656-18.131-24.383-18.131-45.953 0-20.007 8.1277-36.887 19.694-48.141 10.941-10.629 25.008-16.255 42.514-16.255 22.195 0 38.138 10.941 48.766 22.195v-55.644c-20.319-8.7529-36.262-11.566-50.017-11.566-32.511 0-59.395 12.192-77.839 30.01-18.756 18.131-32.511 45.64-32.511 78.464 0 33.449 13.755 60.958 32.511 79.089 17.506 17.193 43.452 30.323 81.903 30.323 12.504 0 27.509-1.8756 45.953-11.254z"/>
    <path d="m304.43 243.81c-12.817-17.506-31.886-20.319-43.765-20.319-19.382 0-36.262 6.8773-48.454 19.069-12.817 12.817-21.57 32.824-21.57 56.269 0 18.444 5.6269 36.575 20.319 52.205 15.318 16.255 32.198 21.257 52.205 21.257 11.566 0 29.072-2.8134 41.264-21.57v16.881h45.015v-139.42h-45.015zm-32.511 18.444c8.1277 0 18.131 3.126 25.008 9.6908 6.5647 6.2521 10.316 15.63 10.316 25.634 0 11.879-5.0017 20.632-10.941 26.259-5.9395 5.9395-14.38 9.6908-23.445 9.6908-10.629 0-20.319-4.3765-26.571-10.941-4.0639-4.3765-9.3782-12.504-9.3782-25.008s5.6269-20.632 10.316-25.321c5.9395-5.9395 15.005-10.003 24.696-10.003z"/>
    <path d="m385.71 139.71v227.89h45.015v-227.89z"/>
   </g>
   <path d="m551.64 176.34c0-9.5537-12.303-13.154-17.723-5.2345-49.716 72.669 20.934 75.94 20.934 111.26 0 14.302-11.685 25.875-26.032 25.687-14.118-0.18062-25.35-11.95-25.35-26.068v-34.325c0-8.7108-10.626-12.938-16.631-6.6234-10.746 11.288-21.905 30.624-21.905 54.175 0 42.498 34.574 77.072 77.072 77.072s77.072-34.574 77.072-77.072c0-68.357-67.438-77.474-67.438-118.88z" fill="#fb0f36" stroke-width=".40142"/>
   <g fill="#005ba3" stroke-width="7.8151">
    <path d="m756.77 231.3c-11.879-5.6269-23.133-7.8151-35.324-7.8151-19.069 0-37.513 5.0017-53.143 19.694-13.129 12.504-23.133 31.26-23.133 55.018 0 25.321 11.254 42.827 21.882 53.143 12.817 12.504 30.635 20.945 54.081 20.945 12.504 0 23.758-1.8756 35.637-8.4403v-40.639c-10.316 8.7529-20.945 10.941-28.76 10.941-10.003 0-20.319-3.7513-27.197-11.254-5.6269-5.9395-9.3782-14.692-9.3782-25.008 0-11.254 4.3765-20.319 10.316-26.259 3.126-3.126 11.566-10.003 25.634-10.003 7.1899 0 18.444 1.563 29.385 10.629z"/>
    <path d="m893.69 243.81c-12.817-17.506-31.886-20.319-43.765-20.319-19.382 0-36.262 6.8773-48.454 19.069-12.817 12.817-21.57 32.824-21.57 56.269 0 18.444 5.6269 36.575 20.319 52.205 15.318 16.255 32.198 21.257 52.205 21.257 11.566 0 29.072-2.8134 41.264-21.57v16.881h45.015v-139.42h-45.015zm-32.511 18.444c8.1277 0 18.131 3.126 25.008 9.6908 6.5647 6.2521 10.316 15.63 10.316 25.634 0 11.879-5.0017 20.632-10.941 26.259-5.9395 5.9395-14.38 9.6908-23.445 9.6908-10.629 0-20.319-4.3765-26.571-10.941-4.0639-4.3765-9.3782-12.504-9.3782-25.008s5.6269-20.632 10.316-25.321c5.9395-5.9395 15.005-10.003 24.696-10.003z"/>
    <path d="m974.97 139.71v227.89h45.015v-227.89z"/>
   </g>
  </g>
 </g>
</svg>
