<?xml version="1.0" encoding="UTF-8" standalone="no"?>
<!-- Created with Inkscape (http://www.inkscape.org/) -->

<svg
   width="1015.9655"
   height="232.57812"
   viewBox="0 0 1015.9655 232.57812"
   version="1.1"
   id="svg5"
   inkscape:version="1.1.1 (3bf5ae0d25, 2021-09-20)"
   sodipodi:docname="calocal.svg"
   xmlns:inkscape="http://www.inkscape.org/namespaces/inkscape"
   xmlns:sodipodi="http://sodipodi.sourceforge.net/DTD/sodipodi-0.dtd"
   xmlns="http://www.w3.org/2000/svg"
   xmlns:svg="http://www.w3.org/2000/svg">
  <sodipodi:namedview
     id="namedview7"
     pagecolor="#ffffff"
     bordercolor="#666666"
     borderopacity="1.0"
     inkscape:pageshadow="2"
     inkscape:pageopacity="0.0"
     inkscape:pagecheckerboard="0"
     inkscape:document-units="px"
     showgrid="false"
     width="1024px"
     inkscape:showpageshadow="false"
     showguides="true"
     inkscape:guide-bbox="true"
     inkscape:snap-to-guides="false"
     inkscape:zoom="0.85253906"
     inkscape:cx="507.30813"
     inkscape:cy="137.8236"
     inkscape:window-width="1920"
     inkscape:window-height="1135"
     inkscape:window-x="0"
     inkscape:window-y="32"
     inkscape:window-maximized="1"
     inkscape:current-layer="layer1"
     inkscape:lockguides="true" />
  <defs
     id="defs2" />
  <g
     inkscape:label="Layer 1"
     inkscape:groupmode="layer"
     id="layer1"
     transform="translate(-4.0180566,-139.71077)">
    <g
       id="g62719">
      <g
         id="g23741"
         style="fill:#005ba3;fill-opacity:1">
        <path
           d="m 164.38443,305.70403 c -18.4437,18.13109 -35.32437,21.56975 -47.82857,21.56975 -25.63361,0 -40.638651,-13.12941 -45.015121,-17.50588 -9.37815,-9.06555 -18.131091,-24.38319 -18.131091,-45.95294 0,-20.00672 8.127731,-36.88739 19.694116,-48.14117 10.941175,-10.62857 25.008401,-16.25546 42.514286,-16.25546 22.19495,0 38.13781,10.94117 48.76638,22.19495 v -55.64369 c -20.31933,-8.75294 -36.26218,-11.56638 -50.0168,-11.56638 -32.510926,0 -59.394957,12.19159 -77.838652,30.01008 -18.756301,18.13109 -32.5109214,45.64033 -32.5109214,78.46385 0,33.44874 13.7546204,60.95798 32.5109214,79.08907 17.50588,17.19328 43.452096,30.32269 81.902512,30.32269 12.5042,0 27.50924,-1.87563 45.95294,-11.25378 z"
           style="font-weight:600;font-size:312.605px;line-height:1.25;font-family:'Futura PT';-inkscape-font-specification:'Futura PT Semi-Bold';fill:#005ba3;fill-opacity:1;stroke-width:7.81511"
           id="path23607" />
        <path
           d="m 304.43133,243.80824 c -12.81681,-17.50588 -31.88572,-20.31933 -43.76471,-20.31933 -19.38151,0 -36.26218,6.87731 -48.45377,19.06891 -12.81681,12.8168 -21.56975,32.82352 -21.56975,56.2689 0,18.4437 5.62689,36.57479 20.31933,52.20504 15.31764,16.25546 32.19831,21.25714 52.20503,21.25714 11.56639,0 29.07227,-2.81345 41.26387,-21.56975 v 16.88067 h 45.01512 V 228.17799 h -45.01512 z m -32.51093,18.44369 c 8.12773,0 18.1311,3.12605 25.00841,9.69076 6.5647,6.2521 10.31596,15.63025 10.31596,25.63361 0,11.87899 -5.00168,20.63193 -10.94117,26.25882 -5.9395,5.9395 -14.37984,9.69076 -23.44538,9.69076 -10.62857,0 -20.31933,-4.37647 -26.57143,-10.94118 -4.06386,-4.37647 -9.37815,-12.5042 -9.37815,-25.0084 0,-12.5042 5.62689,-20.63193 10.31597,-25.32101 5.93949,-5.93949 15.00504,-10.00336 24.69579,-10.00336 z"
           style="font-weight:600;font-size:312.605px;line-height:1.25;font-family:'Futura PT';-inkscape-font-specification:'Futura PT Semi-Bold';fill:#005ba3;fill-opacity:1;stroke-width:7.81511"
           id="path23609" />
        <path
           d="m 385.70848,139.71077 v 227.88905 h 45.01513 V 139.71077 Z"
           style="font-weight:600;font-size:312.605px;line-height:1.25;font-family:'Futura PT';-inkscape-font-specification:'Futura PT Semi-Bold';fill:#005ba3;fill-opacity:1;stroke-width:7.81511"
           id="path23611" />
      </g>
      <path
         fill="currentColor"
         d="m 551.64499,176.34103 c 0,-9.55372 -12.30345,-13.15445 -17.72258,-5.23449 -49.71553,72.66859 20.93392,75.94013 20.93392,111.26487 0,14.3025 -11.68525,25.87536 -26.03191,25.68669 -14.11784,-0.18062 -25.34951,-11.95019 -25.34951,-26.06804 v -34.32519 c 0,-8.71076 -10.62553,-12.93769 -16.63072,-6.6234 -10.74594,11.28786 -21.90535,30.62414 -21.90535,54.17529 0,42.49806 34.57408,77.07214 77.07214,77.07214 42.49806,0 77.07214,-34.57408 77.07214,-77.07214 0,-68.35736 -67.43813,-77.47355 -67.43813,-118.87573 z"
         id="path8061"
         style="fill:#fb0f36;fill-opacity:1;stroke-width:0.401416" />
      <g
         id="g23746"
         style="fill:#005ba3;fill-opacity:1">
        <path
           d="m 756.77034,231.30404 c -11.87899,-5.62689 -23.13277,-7.81513 -35.32436,-7.81513 -19.06891,0 -37.5126,5.00168 -53.14286,19.69412 -13.12941,12.5042 -23.13277,31.2605 -23.13277,55.01848 0,25.32101 11.25378,42.82689 21.88235,53.14285 12.81681,12.5042 30.6353,20.94454 54.08067,20.94454 12.5042,0 23.75798,-1.87563 35.63697,-8.44034 v -40.63865 c -10.31596,8.75294 -20.94453,10.94118 -28.75966,10.94118 -10.00336,0 -20.31932,-3.75126 -27.19663,-11.25378 -5.62689,-5.9395 -9.37815,-14.69244 -9.37815,-25.0084 0,-11.25378 4.37647,-20.31933 10.31596,-26.25883 3.12605,-3.12605 11.56639,-10.00336 25.63361,-10.00336 7.18992,0 18.4437,1.56303 29.38487,10.62857 z"
           style="font-weight:600;font-size:312.605px;line-height:1.25;font-family:'Futura PT';-inkscape-font-specification:'Futura PT Semi-Bold';fill:#005ba3;fill-opacity:1;stroke-width:7.81511"
           id="path23615" />
        <path
           d="m 893.69124,243.80824 c -12.8168,-17.50588 -31.88571,-20.31933 -43.7647,-20.31933 -19.38151,0 -36.26218,6.87731 -48.45377,19.06891 -12.81681,12.8168 -21.56975,32.82352 -21.56975,56.2689 0,18.4437 5.62689,36.57479 20.31933,52.20504 15.31764,16.25546 32.19831,21.25714 52.20503,21.25714 11.56639,0 29.07227,-2.81345 41.26386,-21.56975 v 16.88067 h 45.01513 V 228.17799 h -45.01513 z m -32.51092,18.44369 c 8.12773,0 18.13109,3.12605 25.0084,9.69076 6.56471,6.2521 10.31597,15.63025 10.31597,25.63361 0,11.87899 -5.00168,20.63193 -10.94118,26.25882 -5.93949,5.9395 -14.37983,9.69076 -23.44537,9.69076 -10.62857,0 -20.31933,-4.37647 -26.57143,-10.94118 -4.06386,-4.37647 -9.37815,-12.5042 -9.37815,-25.0084 0,-12.5042 5.62689,-20.63193 10.31597,-25.32101 5.93949,-5.93949 15.00504,-10.00336 24.69579,-10.00336 z"
           style="font-weight:600;font-size:312.605px;line-height:1.25;font-family:'Futura PT';-inkscape-font-specification:'Futura PT Semi-Bold';fill:#005ba3;fill-opacity:1;stroke-width:7.81511"
           id="path23617" />
        <path
           d="m 974.96843,139.71077 v 227.88905 h 45.01517 V 139.71077 Z"
           style="font-weight:600;font-size:312.605px;line-height:1.25;font-family:'Futura PT';-inkscape-font-specification:'Futura PT Semi-Bold';fill:#005ba3;fill-opacity:1;stroke-width:7.81511"
           id="path23619" />
      </g>
    </g>
  </g>
</svg>
