<?xml version="1.0" encoding="UTF-8"?>
<!-- Created with Inkscape (http://www.inkscape.org/) -->
<svg width="16" height="16" version="1.1" viewBox="0 0 16 16" xmlns="http://www.w3.org/2000/svg">
 <path d="m8.7484 0.76069c0-0.74221-0.95583-1.0219-1.3768-0.40666-3.8623 5.6454 1.6263 5.8996 1.6263 8.6439 0 1.1111-0.9078 2.0102-2.0224 1.9955-1.0968-0.01403-1.9693-0.92838-1.9693-2.0252v-2.6666c0-0.67672-0.82547-1.0051-1.292-0.51455-0.83483 0.87693-1.7018 2.3791-1.7018 4.2087 0 3.3016 2.686 5.9875 5.9875 5.9875 3.3016 0 5.9875-2.686 5.9875-5.9875 0-5.3105-5.2391-6.0187-5.2391-9.2352z" fill="#fb0f36" stroke-width=".031185"/>
 <g fill-opacity="0">
  <rect x="-8.684" y="-4.8601" width="4.6883" height="10.918"/>
  <rect x="-5.3636" y="3.6163" width="1.3679" height="2.4413"/>
  <rect x="1.5563" y="1.8784" width="2.2634" height="2.684"/>
 </g>
 <g transform="matrix(1.3296 0 0 -1.3296 -1.0237 5.1013)">
  <path d="m2.2512 3.8367v-1.4801h-1.4816v-0.87642h1.4816v-1.4801h0.87489v1.4801h1.4801v0.87642h-1.4801v1.4801z" fill="#0263f6" stroke-width=".7434"/>
 </g>
</svg>
